<svg width="1306" height="285" viewBox="0 0 1306 285" fill="none" xmlns="http://www.w3.org/2000/svg">
<rect width="1306" height="285" fill="#009065"/>
<mask id="mask0_6_59" style="mask-type:alpha" maskUnits="userSpaceOnUse" x="0" y="0" width="1306" height="285">
<path d="M0 0H1306V285H0V0Z" fill="#009065"/>
</mask>
<g mask="url(#mask0_6_59)">
<rect opacity="0.33" x="361" y="282" width="611" height="611" transform="rotate(-180 361 282)" fill="url(#paint0_linear_6_59)"/>
<rect opacity="0.25" x="284.792" y="205.57" width="454.584" height="454.584" transform="rotate(-180 284.792 205.57)" fill="url(#paint1_linear_6_59)"/>
<rect opacity="0.25" x="206.584" y="127.362" width="298.168" height="298.168" transform="rotate(-180 206.584 127.362)" fill="url(#paint2_linear_6_59)"/>
<rect opacity="0.33" x="938" width="614" height="614" fill="url(#paint3_linear_6_59)"/>
<rect opacity="0.25" x="1016.59" y="79.8203" width="456.816" height="456.816" fill="url(#paint4_linear_6_59)"/>
<rect opacity="0.25" x="1095.18" y="158.412" width="299.632" height="299.632" fill="url(#paint5_linear_6_59)"/>
</g>
<defs>
<linearGradient id="paint0_linear_6_59" x1="666.5" y1="282" x2="666.5" y2="893" gradientUnits="userSpaceOnUse">
<stop stop-color="#0B0B0B" stop-opacity="0.23"/>
<stop offset="1" stop-opacity="0"/>
</linearGradient>
<linearGradient id="paint1_linear_6_59" x1="512.084" y1="205.57" x2="512.084" y2="660.154" gradientUnits="userSpaceOnUse">
<stop stop-color="#0B0B0B" stop-opacity="0.23"/>
<stop offset="1" stop-opacity="0"/>
</linearGradient>
<linearGradient id="paint2_linear_6_59" x1="355.668" y1="127.362" x2="355.668" y2="425.53" gradientUnits="userSpaceOnUse">
<stop stop-color="#0B0B0B" stop-opacity="0.23"/>
<stop offset="1" stop-opacity="0"/>
</linearGradient>
<linearGradient id="paint3_linear_6_59" x1="1245" y1="0" x2="1245" y2="614" gradientUnits="userSpaceOnUse">
<stop stop-color="#0B0B0B" stop-opacity="0.23"/>
<stop offset="1" stop-opacity="0"/>
</linearGradient>
<linearGradient id="paint4_linear_6_59" x1="1245" y1="79.8203" x2="1245" y2="536.636" gradientUnits="userSpaceOnUse">
<stop stop-color="#0B0B0B" stop-opacity="0.23"/>
<stop offset="1" stop-opacity="0"/>
</linearGradient>
<linearGradient id="paint5_linear_6_59" x1="1245" y1="158.412" x2="1245" y2="458.044" gradientUnits="userSpaceOnUse">
<stop stop-color="#0B0B0B" stop-opacity="0.23"/>
<stop offset="1" stop-opacity="0"/>
</linearGradient>
</defs>
</svg>
